Coordinates
version=1
nRows=13
nColumns=40
inDegrees=yes

Units are S.I. units (second, meters, Newtons, ...)
If the header above contains a line with 'inDegrees', this indicates whether rotational values are in degrees (yes) or radians (no).

endheader
time	pelvis_tilt	pelvis_list	pelvis_rotation	pelvis_tx	pelvis_ty	pelvis_tz	hip_flexion_r	hip_adduction_r	hip_rotation_r	knee_angle_r	knee_angle_r_beta	ankle_angle_r	subtalar_angle_r	mtp_angle_r	hip_flexion_l	hip_adduction_l	hip_rotation_l	knee_angle_l	knee_angle_l_beta	ankle_angle_l	subtalar_angle_l	mtp_angle_l	lumbar_extension	lumbar_bending	lumbar_rotation	arm_flex_r	arm_add_r	arm_rot_r	elbow_flex_r	pro_sup_r	wrist_flex_r	wrist_dev_r	arm_flex_l	arm_add_l	arm_rot_l	elbow_flex_l	pro_sup_l	wrist_flex_l	wrist_dev_l
      2.03500000	    -20.38736005	     -0.13718396	     -2.34782618	     -0.34068126	      0.89835646	     -1.14915746	      8.86649783	     -4.03417527	     11.42061996	     74.24054740	      1.29574199	     -4.14960997	      0.00000000	      0.00000000	     57.33402312	     -0.75197331	     -5.80058698	     64.77390355	      1.13051789	     14.62280311	      0.00000000	      0.00000000	    -14.09564864	     -7.88322985	      5.15157022	     89.92718975	     -1.63950369	     15.95148882	     41.10158081	     84.71117408	      0.00000000	      0.00000000	     89.95642604	     -2.67022016	     23.29114634	     49.89536701	     65.98245124	      0.00000000	      0.00000000
      2.04000000	    -20.42415658	     -0.18529069	     -2.41406443	     -0.34082262	      0.89736618	     -1.14893841	      8.84019351	     -3.91995201	     11.52139931	     74.23679980	      1.29567658	     -4.32555465	      0.00000000	      0.00000000	     57.49485331	     -0.70585435	     -5.53139461	     64.96229495	      1.13380594	     14.80574308	      0.00000000	      0.00000000	    -14.13343943	     -7.83274836	      5.25555945	     89.92819830	     -1.64839638	     15.84822148	     41.24454816	     84.80786301	      0.00000000	      0.00000000	     89.95652779	     -2.67320497	     23.25405956	     49.90582489	     65.64930771	      0.00000000	      0.00000000
      2.04500000	    -20.59066896	     -0.14795237	     -2.50665316	     -0.34112870	      0.89603237	     -1.14876525	      8.98933412	     -3.87133187	     11.72172426	     74.32931475	      1.29729127	     -4.20699466	      0.00000000	      0.00000000	     57.86000382	     -0.66737043	     -5.43683551	     65.26926863	      1.13916364	     14.80764472	      0.00000000	      0.00000000	    -14.03046612	     -7.88255583	      5.39810104	     89.92876641	     -1.61428036	     16.16610116	     41.31181394	     79.00745198	      0.00000000	      0.00000000	     89.95671428	     -2.55994145	     23.14131000	     49.91129016	     61.62546769	      0.00000000	      0.00000000
      2.05000000	    -20.67358332	     -0.04298912	     -2.56692979	     -0.34127347	      0.89491213	     -1.14883090	      9.06039037	     -3.93295633	     11.86930728	     74.37668297	      1.29811800	     -4.33395375	      0.00000000	      0.00000000	     58.04800486	     -0.50229823	     -5.32065945	     65.44983818	      1.14231517	     15.14716590	      0.00000000	      0.00000000	    -14.00850821	     -7.97303851	      5.45061780	     89.92983577	     -1.73518017	     15.76689280	     41.45258072	     84.45064143	      0.00000000	      0.00000000	     89.95684280	     -2.56869262	     22.63378521	     49.55374901	     76.15807018	      0.00000000	      0.00000000
      2.05500000	    -20.77320080	     -0.02243640	     -2.64546120	     -0.34151547	      0.89377985	     -1.14865026	      9.14224419	     -3.89295985	     11.99330964	     74.45399614	      1.29946737	     -4.37537762	      0.00000000	      0.00000000	     58.29387779	     -0.42776515	     -5.14661090	     65.67111261	      1.14617714	     15.30323041	      0.00000000	      0.00000000	    -13.98446605	     -8.00360888	      5.54675253	     89.93070556	     -1.75283326	     15.68004693	     41.51942435	     84.51377203	      0.00000000	      0.00000000	     89.95691735	     -2.58690300	     22.77193777	     49.72536665	     72.34384917	      0.00000000	      0.00000000
      2.06000000	    -20.77038807	      0.09478201	     -2.71666454	     -0.34160314	      0.89275504	     -1.14872060	      9.09343658	     -3.97017126	     12.15766726	     74.44330537	      1.29928078	     -4.61722779	      0.00000000	      0.00000000	     58.38905119	     -0.25361918	     -5.05766485	     65.84972570	      1.14929452	     15.57199175	      0.00000000	      0.00000000	    -14.08345479	     -8.08555277	      5.64047642	     89.93094241	     -1.80100515	     16.69921269	     41.88713256	     76.55930196	      0.00000000	      0.00000000	     89.95707528	     -2.62074103	     22.98088870	     50.05166215	     65.63495448	      0.00000000	      0.00000000
      2.06500000	    -20.97954044	      0.06650613	     -2.83066060	     -0.34200482	      0.89144498	     -1.14845844	      9.27831995	     -3.77972327	     12.45309815	     74.54187339	      1.30100112	     -4.21757466	      0.00000000	      0.00000000	     58.79282724	     -0.25184237	     -4.81766877	     66.07868048	      1.15329054	     15.22981239	      0.00000000	      0.00000000	    -13.91849466	     -8.05309053	      5.82481824	     89.93152534	     -1.63226613	     16.57458754	     41.86366299	     71.84301022	      0.00000000	      0.00000000	     89.95697734	     -2.45450645	     22.69234985	     49.97588337	     61.60176803	      0.00000000	      0.00000000
      2.07000000	    -20.98251024	      0.05183910	     -2.83837794	     -0.34190324	      0.89040669	     -1.14850257	      9.19371661	     -3.74889220	     12.44351816	     74.46512079	      1.29966154	     -4.47904467	      0.00000000	      0.00000000	     58.90935188	     -0.17461100	     -4.70361655	     66.34540487	      1.15794576	     15.76281737	      0.00000000	      0.00000000	    -13.99030858	     -8.02820723	      5.83174714	     89.93221087	     -1.76173394	     15.44616702	     41.86322455	     84.22955811	      0.00000000	      0.00000000	     89.95735470	     -2.56690463	     22.38357515	     49.66918383	     76.25045499	      0.00000000	      0.00000000
      2.07500000	    -21.07985653	      0.12823418	     -2.88301318	     -0.34208553	      0.88929616	     -1.14850345	      9.27892519	     -3.81669948	     12.52948950	     74.49591697	      1.30019903	     -4.52617877	      0.00000000	      0.00000000	     59.13932777	     -0.05321861	     -4.59780818	     66.54703047	      1.16146479	     15.86464973	      0.00000000	      0.00000000	    -13.99167336	     -8.07793079	      5.96148454	     89.93267776	     -1.84062859	     15.32293761	     42.03295343	     84.23649127	      0.00000000	      0.00000000	     89.95752964	     -2.50421630	     22.48382391	     49.74508618	     72.66821694	      0.00000000	      0.00000000
      2.08000000	    -21.13109202	      0.17016904	     -3.03401716	     -0.34231467	      0.88826478	     -1.14819703	      9.29497698	     -3.75129818	     12.75989990	     74.51357387	      1.30050720	     -4.60687137	      0.00000000	      0.00000000	     59.31942740	     -0.06975063	     -4.54969661	     66.76807092	      1.16532267	     16.02304145	      0.00000000	      0.00000000	    -13.98102074	     -8.15091007	      6.09334439	     89.93324272	     -1.77237650	     15.08371326	     42.06893721	     84.42500158	      0.00000000	      0.00000000	     89.95760006	     -2.54704784	     22.49903454	     49.88704399	     70.25624436	      0.00000000	      0.00000000
      2.08500000	    -21.27840234	      0.18505355	     -3.19510928	     -0.34251479	      0.88697298	     -1.14793415	      9.43691938	     -3.66986954	     13.02096495	     74.53458303	      1.30087388	     -4.47529232	      0.00000000	      0.00000000	     59.62396339	     -0.08903433	     -4.40495939	     67.01820934	      1.16968841	     15.95281789	      0.00000000	      0.00000000	    -13.89555337	     -8.16055632	      6.30473822	     89.93388771	     -1.74729455	     15.16741787	     42.15754434	     81.77288793	      0.00000000	      0.00000000	     89.95774899	     -2.49071523	     22.40120703	     49.87428036	     68.19944797	      0.00000000	      0.00000000
      2.09000000	    -21.36010586	      0.23983003	     -3.28485547	     -0.34265484	      0.88578523	     -1.14790036	      9.50060761	     -3.65238709	     13.20437888	     74.58767451	      1.30180050	     -4.79280442	      0.00000000	      0.00000000	     59.83875331	     -0.03618517	     -4.34634685	     67.28232651	      1.17429813	     16.33738412	      0.00000000	      0.00000000	    -13.87986356	     -8.19824198	      6.39925565	     89.93435180	     -1.76993641	     14.85466184	     42.29735154	     84.52833005	      0.00000000	      0.00000000	     89.95800245	     -2.56755847	     22.51839285	     50.07714473	     65.64445748	      0.00000000	      0.00000000
      2.09500000	    -21.41357403	      0.20987072	     -3.39303136	     -0.34282692	      0.88476145	     -1.14770412	      9.51430512	     -3.52672410	     13.36991855	     74.59836524	      1.30198709	     -4.80931001	      0.00000000	      0.00000000	     60.02256695	     -0.03710321	     -4.17107748	     67.52506204	      1.17853466	     16.55410862	      0.00000000	      0.00000000	    -13.89485433	     -8.16162877	      6.57083426	     89.93523695	     -1.81523925	     14.77678603	     42.38351012	     84.72963160	      0.00000000	      0.00000000	     89.95811658	     -2.53648679	     22.40436162	     49.99353105	     66.92218269	      0.00000000	      0.00000000
